#!OML:ASF G:\JayActor3\Patient Classification 1\Patient 1\Session 6\male.ASF
:FULLY-SPECIFIED
:DEGREES
1559
root 4.54901 16.114 -22.5235 173.879 -44.7806 -178.924
lowerback 5.70508 0.00457118 4.66673
upperback -1.14895 0.379564 2.93214
thorax -4.38584 0.0673763 0.388024
lowerneck 4.9425 -1.31817 4.08807
upperneck 13.8602 -2.10872 -3.49095
head 3.57173 -1.27725 -1.91898
rclavicle -3.38928e-014 -4.85035e-014
rhumerus 24.0635 42.0037 -9.03053
rradius 129.423
rwrist -79.3828
rhand -25.5495 -8.69582
rfingers 7.12502
rthumb 0.980885 -38.6733
lclavicle -3.38928e-014 -4.85035e-014
lhumerus -43.3038 -14.2307 88.6491
lradius 32.6667
lwrist 24.364
lhand -9.30915 7.51832
lfingers 7.12502
lthumb 16.6488 36.8243
rfemur -10.9061 -3.94635 15.0929
rtibia 39.5263
rfoot -22.7038 -9.4865
rtoes -1.90205
lfemur -3.32631 17.2445 -7.87097
ltibia 26.0529
lfoot -13.2225 7.50908
ltoes -5.0769
1560
root 4.54456 16.1042 -22.5054 173.866 -44.6505 -178.89
lowerback 5.76551 0.010878 4.62934
upperback -1.12464 0.388773 2.85908
thorax -4.39405 0.0735761 0.331975
lowerneck 4.95571 -1.34991 4.03907
upperneck 13.8126 -2.14845 -3.5072
head 3.55064 -1.29921 -1.91471
rclavicle 5.88403e-014 3.10104e-014
rhumerus 23.9912 41.9016 -9.0643
rradius 129.501
rwrist -79.4539
rhand -25.628 -8.64605
rfingers 7.12502
rthumb 0.905048 -38.6239
lclavicle 5.88403e-014 3.10104e-014
lhumerus -43.2096 -14.2637 88.4452
lradius 32.7651
lwrist 24.3421
lhand -9.38918 7.51044
lfingers 7.12502
lthumb 16.5718 36.8229
rfemur -11.1139 -4.06167 15.0419
rtibia 39.7496
rfoot -22.6443 -9.35243
rtoes -2.11844
lfemur -3.50801 17.5034 -7.84531
ltibia 26.3903
lfoot -13.4322 7.29425
ltoes -4.87014
1561
root 4.54099 16.0942 -22.4878 173.835 -44.5309 -178.848
lowerback 5.83642 0.016126 4.59104
upperback -1.09522 0.396821 2.78783
thorax -4.40291 0.0792213 0.278405
lowerneck 4.98303 -1.38556 3.97488
upperneck 13.7427 -2.194 -3.5057
head 3.51899 -1.32366 -1.90098
rclavicle 1.24439e-013 -1.59028e-015
rhumerus 23.9065 41.801 -9.11778
rradius 129.58
rwrist -79.5176
rhand -25.7091 -8.60456
rfingers 7.12502
rthumb 0.826659 -38.5827
lclavicle 1.24439e-013 -1.59028e-015
lhumerus -43.1159 -14.2948 88.249
lradius 32.8636
lwrist 24.3286
lhand -9.47333 7.50825
lfingers 7.12502
lthumb 16.4908 36.8274
rfemur -11.3072 -4.17501 15.0008
rtibia 39.9689
rfoot -22.5887 -9.21709
rtoes -2.31119
lfemur -3.69088 17.7538 -7.80844
ltibia 26.7415
lfoot -13.6295 7.0776
ltoes -4.67097
1562
root 4.53831 16.084 -22.4707 173.79 -44.4219 -178.803
lowerback 5.92699 0.0196779 4.54628
upperback -1.06512 0.403331 2.71594
thorax -4.42225 0.0841012 0.227944
lowerneck 5.02233 -1.42244 3.90459
upperneck 13.6648 -2.24213 -3.4918
head 3.48245 -1.34914 -1.8816
rclavicle 2.62396e-014 3.33958e-014
rhumerus 23.8086 41.7097 -9.19499
rradius 129.656
rwrist -79.5589
rhand -25.7757 -8.56886
rfingers 7.12502
rthumb 0.762374 -38.5472
lclavicle 2.62396e-014 3.33958e-014
lhumerus -43.0317 -14.3252 88.0593
lradius 32.963
lwrist 24.3308
lhand -9.5466 7.51033
lfingers 7.12502
lthumb 16.4202 36.8353
rfemur -11.483 -4.27532 14.966
rtibia 40.1857
rfoot -22.5414 -9.08752
rtoes -2.47367
lfemur -3.87056 17.9963 -7.76568
ltibia 27.1032
lfoot -13.8124 6.86705
ltoes -4.51863
1563
root 4.53625 16.0735 -22.4542 173.732 -44.3223 -178.757
lowerback 6.01569 0.0227187 4.49845
upperback -1.02134 0.4079 2.64229
thorax -4.42629 0.0884448 0.177438
lowerneck 5.06269 -1.45912 3.827
upperneck 13.5729 -2.29068 -3.46117
head 3.44099 -1.37411 -1.85493
rclavicle 8.26944e-014 -1.59028e-014
rhumerus 23.7024 41.6073 -9.29631
rradius 129.729
rwrist -79.5863
rhand -25.8379 -8.54385
rfingers 7.12502
rthumb 0.702266 -38.5224
lclavicle 8.26944e-014 -1.59028e-014
lhumerus -42.9347 -14.3639 87.8761
lradius 33.0571
lwrist 24.3531
lhand -9.62357 7.51331
lfingers 7.12502
lthumb 16.3461 36.8444
rfemur -11.6432 -4.36024 14.9372
rtibia 40.4012
rfoot -22.504 -8.9683
rtoes -2.61474
lfemur -4.04515 18.2339 -7.71732
ltibia 27.4708
lfoot -13.9832 6.66454
ltoes -4.43914
1564
root 4.53449 16.0629 -22.4385 173.672 -44.2345 -178.73
lowerback 6.11496 0.0234218 4.43197
upperback -0.972857 0.408317 2.56418
thorax -4.43158 0.0912661 0.133094
lowerneck 5.10412 -1.49255 3.747
upperneck 13.4839 -2.33613 -3.42008
head 3.40074 -1.39735 -1.82438
rclavicle -9.64106e-015 -4.77083e-015
rhumerus 23.5898 41.5103 -9.41806
rradius 129.805
rwrist -79.6108
rhand -25.8941 -8.52547
rfingers 7.12502
rthumb 0.648052 -38.5042
lclavicle -9.64106e-015 -4.77083e-015
lhumerus -42.8375 -14.3997 87.6963
lradius 33.1419
lwrist 24.4043
lhand -9.67607 7.52115
lfingers 7.12502
lthumb 16.2956 36.8564
rfemur -11.7828 -4.43348 14.8966
rtibia 40.6172
rfoot -22.4758 -8.86439
rtoes -2.75118
lfemur -4.20667 18.4662 -7.678
ltibia 27.839
lfoot -14.1485 6.47026
ltoes -4.42937
1565
root 4.5328 16.0519 -22.4234 173.61 -44.1626 -178.72
lowerback 6.21746 0.0194047 4.35049
upperback -0.914365 0.400788 2.48229
thorax -4.42852 0.0907435 0.0939519
lowerneck 5.13714 -1.51909 3.6557
upperneck 13.4005 -2.37457 -3.36021
head 3.36466 -1.41701 -1.78584
rclavicle 9.61124e-014 -3.49861e-014
rhumerus 23.4806 41.4087 -9.55246
rradius 129.882
rwrist -79.6274
rhand -25.931 -8.51732
rfingers 7.12502
rthumb 0.612386 -38.4962
lclavicle 9.61124e-014 -3.49861e-014
lhumerus -42.7297 -14.4343 87.5224
lradius 33.211
lwrist 24.4708
lhand -9.72042 7.5279
lfingers 7.12502
lthumb 16.2529 36.8667
rfemur -11.9025 -4.51018 14.8415
rtibia 40.8335
rfoot -22.4513 -8.77398
rtoes -2.92288
lfemur -4.35457 18.6905 -7.64955
ltibia 28.2038
lfoot -14.3092 6.2874
ltoes -4.51055
1566
root 4.53126 16.0409 -22.409 173.554 -44.1022 -178.729
lowerback 6.31506 0.0135543 4.25364
upperback -0.849497 0.388747 2.39683
thorax -4.41622 0.0885392 0.0601278
lowerneck 5.17254 -1.54252 3.55116
upperneck 13.3184 -2.41082 -3.2835
head 3.32901 -1.43568 -1.73939
rclavicle 1.43125e-014 -2.54444e-014
rhumerus 23.368 41.3044 -9.69884
rradius 129.962
rwrist -79.6371
rhand -25.9541 -8.50963
rfingers 7.12502
rthumb 0.590096 -38.4886
lclavicle 1.43125e-014 -2.54444e-014
lhumerus -42.6112 -14.4678 87.3549
lradius 33.2594
lwrist 24.5439
lhand -9.75974 7.52543
lfingers 7.12502
lthumb 16.215 36.8673
rfemur -12.0115 -4.59343 14.772
rtibia 41.0495
rfoot -22.4279 -8.69269
rtoes -3.1343
lfemur -4.49619 18.9061 -7.6334
ltibia 28.5647
lfoot -14.4749 6.11075
ltoes -4.63924
1567
root 4.52982 16.03 -22.3953 173.503 -44.0515 -178.744
lowerback 6.41163 0.00676666 4.14718
upperback -0.785779 0.374406 2.31137
thorax -4.40464 0.0853305 0.031974
lowerneck 5.20981 -1.5625 3.43521
upperneck 13.2451 -2.44462 -3.19324
head 3.29658 -1.45351 -1.68669
rclavicle 5.08392e-014 5.80451e-014
rhumerus 23.2515 41.2072 -9.85083
rradius 130.054
rwrist -79.6579
rhand -25.9797 -8.4966
rfingers 7.12502
rthumb 0.565373 -38.4756
lclavicle 5.08392e-014 5.80451e-014
lhumerus -42.4917 -14.4967 87.1946
lradius 33.2898
lwrist 24.6153
lhand -9.77846 7.5288
lfingers 7.12502
lthumb 16.197 36.8721
rfemur -12.1144 -4.68974 14.6956
rtibia 41.2641
rfoot -22.4091 -8.60906
rtoes -3.3657
lfemur -4.63652 19.1143 -7.62175
ltibia 28.9242
lfoot -14.6485 5.93275
ltoes -4.76484
